<mxfile host="Electron" agent="Mozilla/5.0 (X11; Linux x86_64) AppleWebKit/537.36 (KHTML, like Gecko) draw.io/24.7.5 Chrome/126.0.6478.183 Electron/31.3.0 Safari/537.36" version="24.7.5">
  <diagram name="Page-1" id="eB-w9XpZYr9QBUT0Lkic">
    <mxGraphModel dx="474" dy="838" grid="1" gridSize="10" guides="1" tooltips="1" connect="1" arrows="1" fold="1" page="1" pageScale="1" pageWidth="850" pageHeight="1100" math="0" shadow="0">
      <root>
        <mxCell id="0" />
        <mxCell id="1" parent="0" />
        <mxCell id="5pyi54_eVfcVePlAHlkq-1" value="||" style="whiteSpace=wrap;html=1;" vertex="1" parent="1">
          <mxGeometry x="520" y="70" width="120" height="60" as="geometry" />
        </mxCell>
        <mxCell id="5pyi54_eVfcVePlAHlkq-2" value="&amp;amp;&amp;amp;" style="whiteSpace=wrap;html=1;" vertex="1" parent="1">
          <mxGeometry x="340" y="160" width="120" height="60" as="geometry" />
        </mxCell>
        <mxCell id="5pyi54_eVfcVePlAHlkq-7" value="||" style="whiteSpace=wrap;html=1;" vertex="1" parent="1">
          <mxGeometry x="160" y="240" width="120" height="60" as="geometry" />
        </mxCell>
        <mxCell id="5pyi54_eVfcVePlAHlkq-8" value="echo" style="text;html=1;align=center;verticalAlign=middle;resizable=0;points=[];autosize=1;strokeColor=none;fillColor=none;" vertex="1" parent="1">
          <mxGeometry x="110" y="340" width="50" height="30" as="geometry" />
        </mxCell>
        <mxCell id="5pyi54_eVfcVePlAHlkq-9" value="echo" style="text;html=1;align=center;verticalAlign=middle;resizable=0;points=[];autosize=1;strokeColor=none;fillColor=none;" vertex="1" parent="1">
          <mxGeometry x="270" y="340" width="50" height="30" as="geometry" />
        </mxCell>
        <mxCell id="5pyi54_eVfcVePlAHlkq-10" value="echo" style="text;html=1;align=center;verticalAlign=middle;resizable=0;points=[];autosize=1;strokeColor=none;fillColor=none;" vertex="1" parent="1">
          <mxGeometry x="470" y="250" width="50" height="30" as="geometry" />
        </mxCell>
        <mxCell id="5pyi54_eVfcVePlAHlkq-11" value="echo" style="text;html=1;align=center;verticalAlign=middle;resizable=0;points=[];autosize=1;strokeColor=none;fillColor=none;" vertex="1" parent="1">
          <mxGeometry x="640" y="160" width="50" height="30" as="geometry" />
        </mxCell>
        <mxCell id="5pyi54_eVfcVePlAHlkq-12" value="hehehe" style="text;html=1;align=center;verticalAlign=middle;resizable=0;points=[];autosize=1;strokeColor=none;fillColor=none;" vertex="1" parent="1">
          <mxGeometry x="65" y="370" width="60" height="30" as="geometry" />
        </mxCell>
        <mxCell id="5pyi54_eVfcVePlAHlkq-13" value="ok" style="text;html=1;align=center;verticalAlign=middle;resizable=0;points=[];autosize=1;strokeColor=none;fillColor=none;" vertex="1" parent="1">
          <mxGeometry x="230" y="370" width="40" height="30" as="geometry" />
        </mxCell>
        <mxCell id="5pyi54_eVfcVePlAHlkq-14" value="cool" style="text;html=1;align=center;verticalAlign=middle;resizable=0;points=[];autosize=1;strokeColor=none;fillColor=none;" vertex="1" parent="1">
          <mxGeometry x="425" y="280" width="50" height="30" as="geometry" />
        </mxCell>
        <mxCell id="5pyi54_eVfcVePlAHlkq-15" value="ouioui" style="text;html=1;align=center;verticalAlign=middle;resizable=0;points=[];autosize=1;strokeColor=none;fillColor=none;" vertex="1" parent="1">
          <mxGeometry x="590" y="190" width="60" height="30" as="geometry" />
        </mxCell>
      </root>
    </mxGraphModel>
  </diagram>
</mxfile>
